<svg xmlns="http://www.w3.org/2000/svg" xmlns:xlink="http://www.w3.org/1999/xlink" width="1080" zoomAndPan="magnify" viewBox="0 0 810 809.999993" height="1080" preserveAspectRatio="xMidYMid meet" version="1.0"><defs><clipPath id="id1"><path d="M 0 58.691406 L 809.941406 58.691406 L 809.941406 751.382812 L 0 751.382812 Z M 0 58.691406 " clip-rule="nonzero"/></clipPath></defs><path fill="#ffffff" d="M 687.28125 573.480469 C 687.28125 573.480469 415.871094 472.210938 175.320312 611.449219 L 143.699219 526.347656 C 143.699219 526.347656 396.011719 325.207031 687.28125 484.496094 L 687.28125 573.480469 " fill-opacity="1" fill-rule="nonzero"/><g clip-path="url(#id1)"><path fill="#ffffff" d="M 59.519531 441.265625 L 121.371094 492.441406 C 215.847656 426.75 437.992188 311.308594 688.65625 452.804688 L 809.929688 373.046875 L 455.597656 58.699219 L 0 392.03125 L 42.035156 426.800781 L 62.585938 664.1875 L 38.273438 701.867188 L 74.53125 751.382812 L 104.070312 706.363281 L 73.828125 661.378906 L 59.519531 441.265625 " fill-opacity="1" fill-rule="nonzero"/></g></svg>